<svg width="16" height="17" viewBox="0 0 16 17" fill="none" xmlns="http://www.w3.org/2000/svg">
<path d="M6.66667 12.5002C6.84348 12.5002 7.01305 12.4299 7.13807 12.3049C7.2631 12.1799 7.33333 12.0103 7.33333 11.8335V7.8335C7.33333 7.65669 7.2631 7.48712 7.13807 7.36209C7.01305 7.23707 6.84348 7.16683 6.66667 7.16683C6.48986 7.16683 6.32029 7.23707 6.19526 7.36209C6.07024 7.48712 6 7.65669 6 7.8335V11.8335C6 12.0103 6.07024 12.1799 6.19526 12.3049C6.32029 12.4299 6.48986 12.5002 6.66667 12.5002ZM13.3333 4.50016H10.6667V3.8335C10.6667 3.30306 10.456 2.79436 10.0809 2.41928C9.70581 2.04421 9.1971 1.8335 8.66667 1.8335H7.33333C6.8029 1.8335 6.29419 2.04421 5.91912 2.41928C5.54405 2.79436 5.33333 3.30306 5.33333 3.8335V4.50016H2.66667C2.48986 4.50016 2.32029 4.5704 2.19526 4.69543C2.07024 4.82045 2 4.99002 2 5.16683C2 5.34364 2.07024 5.51321 2.19526 5.63823C2.32029 5.76326 2.48986 5.8335 2.66667 5.8335H3.33333V13.1668C3.33333 13.6973 3.54405 14.206 3.91912 14.581C4.29419 14.9561 4.8029 15.1668 5.33333 15.1668H10.6667C11.1971 15.1668 11.7058 14.9561 12.0809 14.581C12.456 14.206 12.6667 13.6973 12.6667 13.1668V5.8335H13.3333C13.5101 5.8335 13.6797 5.76326 13.8047 5.63823C13.9298 5.51321 14 5.34364 14 5.16683C14 4.99002 13.9298 4.82045 13.8047 4.69543C13.6797 4.5704 13.5101 4.50016 13.3333 4.50016ZM6.66667 3.8335C6.66667 3.65669 6.7369 3.48712 6.86193 3.36209C6.98695 3.23707 7.15652 3.16683 7.33333 3.16683H8.66667C8.84348 3.16683 9.01305 3.23707 9.13807 3.36209C9.2631 3.48712 9.33333 3.65669 9.33333 3.8335V4.50016H6.66667V3.8335ZM11.3333 13.1668C11.3333 13.3436 11.2631 13.5132 11.1381 13.6382C11.013 13.7633 10.8435 13.8335 10.6667 13.8335H5.33333C5.15652 13.8335 4.98695 13.7633 4.86193 13.6382C4.7369 13.5132 4.66667 13.3436 4.66667 13.1668V5.8335H11.3333V13.1668ZM9.33333 12.5002C9.51014 12.5002 9.67971 12.4299 9.80474 12.3049C9.92976 12.1799 10 12.0103 10 11.8335V7.8335C10 7.65669 9.92976 7.48712 9.80474 7.36209C9.67971 7.23707 9.51014 7.16683 9.33333 7.16683C9.15652 7.16683 8.98695 7.23707 8.86193 7.36209C8.73691 7.48712 8.66667 7.65669 8.66667 7.8335V11.8335C8.66667 12.0103 8.73691 12.1799 8.86193 12.3049C8.98695 12.4299 9.15652 12.5002 9.33333 12.5002Z" fill="#FF3B30"/>
</svg>
