<svg width="18" height="18" viewBox="0 0 18 18" fill="none" xmlns="http://www.w3.org/2000/svg">
<path d="M4.83333 2.5H13.1667V3.3125C13.1667 4.26556 12.9217 4.99844 12.6617 5.50381C12.5663 5.6894 12.4566 5.86758 12.3333 6.03681V7.804C12.8577 8.26125 13.2771 8.82123 13.5643 9.44735C13.8515 10.0735 14 10.7516 14 11.4375V12.25H9.83333V14.6875C9.83333 14.903 9.74554 15.1097 9.58926 15.262C9.43297 15.4144 9.22101 15.5 9 15.5C8.77899 15.5 8.56702 15.4144 8.41074 15.262C8.25446 15.1097 8.16667 14.903 8.16667 14.6875V12.25H4V11.4375C4 9.99288 4.645 8.69531 5.66667 7.804V6.03681C5.54342 5.86758 5.43365 5.6894 5.33833 5.50381C5.07833 4.99844 4.83333 4.26556 4.83333 3.3125V2.5ZM6.59167 4.125C6.655 4.39475 6.74417 4.6125 6.82833 4.77744C6.90101 4.91959 6.98931 5.05363 7.09167 5.17719L7.09667 5.18206L7.33333 5.41363V8.59294L7 8.83669C6.39443 9.2796 5.96152 9.91029 5.7725 10.625H12.2292C12.0395 9.91036 11.606 9.27994 11 8.8375L10.6667 8.59375V5.41281L10.9033 5.18206L10.9083 5.17637C11.0104 5.05277 11.0984 4.91874 11.1708 4.77663C11.2558 4.61088 11.345 4.39475 11.4083 4.12419L6.59167 4.125Z" fill="#7367F0"/>
</svg>
