<svg width="17" height="18" viewBox="0 0 17 18" fill="none" xmlns="http://www.w3.org/2000/svg">
<circle cx="8.5" cy="9" r="8.5" fill="#FCF0F0"/>
<circle cx="8.5" cy="9.38623" r="4.25" fill="#D00A0A"/>
<path d="M8.79374 9.49988L9.68957 8.60613C9.7288 8.5669 9.75084 8.51369 9.75084 8.45821C9.75084 8.40273 9.7288 8.34952 9.68957 8.31029C9.65034 8.27106 9.59713 8.24902 9.54165 8.24902C9.48617 8.24902 9.43297 8.27106 9.39374 8.31029L8.49999 9.20613L7.60624 8.31029C7.56701 8.27106 7.5138 8.24902 7.45832 8.24902C7.40284 8.24902 7.34963 8.27106 7.3104 8.31029C7.27117 8.34952 7.24913 8.40273 7.24913 8.45821C7.24913 8.51369 7.27117 8.5669 7.3104 8.60613L8.20624 9.49988L7.3104 10.3936C7.29088 10.413 7.27538 10.436 7.2648 10.4614C7.25422 10.4868 7.24878 10.514 7.24878 10.5415C7.24878 10.569 7.25422 10.5963 7.2648 10.6217C7.27538 10.6471 7.29088 10.6701 7.3104 10.6895C7.32977 10.709 7.35281 10.7245 7.3782 10.7351C7.40359 10.7456 7.43082 10.7511 7.45832 10.7511C7.48582 10.7511 7.51305 10.7456 7.53844 10.7351C7.56383 10.7245 7.58687 10.709 7.60624 10.6895L8.49999 9.79363L9.39374 10.6895C9.4131 10.709 9.43615 10.7245 9.46153 10.7351C9.48692 10.7456 9.51415 10.7511 9.54165 10.7511C9.56916 10.7511 9.59639 10.7456 9.62177 10.7351C9.64716 10.7245 9.6702 10.709 9.68957 10.6895C9.7091 10.6701 9.7246 10.6471 9.73517 10.6217C9.74575 10.5963 9.7512 10.569 9.7512 10.5415C9.7512 10.514 9.74575 10.4868 9.73517 10.4614C9.7246 10.436 9.7091 10.413 9.68957 10.3936L8.79374 9.49988Z" fill="white"/>
</svg>
