<svg width="17" height="18" viewBox="0 0 17 18" fill="none" xmlns="http://www.w3.org/2000/svg">
<circle cx="8.5" cy="9" r="8.5" fill="#7367F0" fill-opacity="0.2"/>
<circle cx="8.5" cy="9.38623" r="4.25" fill="#7367F0"/>
<g clip-path="url(#clip0_574_774)">
<path d="M9.9566 11.3757H9.74827V11.0284C9.74762 10.9091 9.72651 10.7909 9.68586 10.6788C9.68359 10.6727 9.6812 10.667 9.67839 10.6612C9.64464 10.5692 9.59803 10.4825 9.53994 10.4036L9.24829 10.0146C9.16737 9.9062 9.12353 9.77465 9.12327 9.6394V9.42903C9.12375 9.26339 9.1895 9.10461 9.30627 8.98713L9.4432 8.85021C9.60228 8.69026 9.70448 8.48252 9.73409 8.25888C9.73421 8.25598 9.73576 8.25357 9.73576 8.25064L9.73518 8.24778C9.74242 8.20342 9.74679 8.15864 9.74827 8.11372V7.62565H9.95661C10.0119 7.62565 10.0648 7.6037 10.1039 7.56463C10.143 7.52556 10.1649 7.47257 10.1649 7.41732C10.1649 7.36206 10.143 7.30907 10.1039 7.27C10.0648 7.23093 10.0119 7.20898 9.95661 7.20898H7.03994C6.98469 7.20898 6.9317 7.23093 6.89263 7.27C6.85356 7.30907 6.83161 7.36206 6.83161 7.41732C6.83161 7.47257 6.85356 7.52556 6.89263 7.56463C6.9317 7.6037 6.98469 7.62565 7.03994 7.62565H7.24827V8.11372C7.24975 8.15864 7.25413 8.20342 7.26137 8.24778L7.26078 8.25065C7.26078 8.25357 7.26233 8.25599 7.26245 8.25889C7.29207 8.48253 7.39426 8.69027 7.55335 8.85022L7.69027 8.98714C7.80704 9.10462 7.87279 9.26339 7.87327 9.42903V9.6394C7.873 9.77463 7.8292 9.90617 7.74835 10.0146L7.4565 10.4036C7.39843 10.4825 7.35183 10.5693 7.31809 10.6613C7.31532 10.6671 7.31294 10.6727 7.31069 10.6787C7.27004 10.7908 7.24892 10.9091 7.24827 11.0284V11.3757H7.03994C6.98468 11.3757 6.93169 11.3976 6.89262 11.4367C6.85355 11.4757 6.8316 11.5287 6.8316 11.584C6.8316 11.6392 6.85355 11.6922 6.89262 11.7313C6.93169 11.7704 6.98468 11.7923 7.03994 11.7923H9.9566C10.0119 11.7923 10.0648 11.7704 10.1039 11.7313C10.143 11.6922 10.1649 11.6392 10.1649 11.584C10.1649 11.5287 10.143 11.4757 10.1039 11.4367C10.0648 11.3976 10.0119 11.3757 9.9566 11.3757ZM7.66494 8.04232V7.62565H9.3316V8.04232H7.66494ZM7.84794 8.55562C7.81859 8.52613 7.79228 8.49376 7.76942 8.45898H9.22712C9.20426 8.49376 9.17795 8.52613 9.1486 8.55562L9.01168 8.69255C8.84917 8.8541 8.74497 9.06508 8.71545 9.29232H8.28108C8.25157 9.06507 8.14737 8.85408 7.98486 8.69253L7.84794 8.55562ZM8.08171 10.2644C8.20225 10.1029 8.27373 9.91005 8.2876 9.70898H8.70894C8.7228 9.91007 8.79432 10.1029 8.91494 10.2644L9.1233 10.5423H7.87319L8.08171 10.2644ZM9.3316 11.3757H7.66494V11.0284C7.66552 11.0051 7.66741 10.982 7.67061 10.959H9.32593C9.32913 10.982 9.33102 11.0051 9.3316 11.0284V11.3757Z" fill="white"/>
</g>
<defs>
<clipPath id="clip0_574_774">
<rect width="5" height="5" fill="white" transform="translate(6 7)"/>
</clipPath>
</defs>
</svg>
