<svg width="17" height="18" viewBox="0 0 17 18" fill="none" xmlns="http://www.w3.org/2000/svg">
<circle cx="8.5" cy="9" r="8.5" fill="#50A864" fill-opacity="0.2"/>
<circle cx="8.5" cy="9.38623" r="4.25" fill="#50A864"/>
<path d="M9.89793 8.50205C9.87856 8.48253 9.85552 8.46703 9.83013 8.45645C9.80474 8.44588 9.77751 8.44043 9.75001 8.44043C9.72251 8.44043 9.69528 8.44588 9.66989 8.45645C9.6445 8.46703 9.62146 8.48253 9.60209 8.50205L8.05001 10.0562L7.39793 9.40205C7.37782 9.38263 7.35408 9.36736 7.32807 9.3571C7.30206 9.34685 7.27428 9.34183 7.24633 9.34231C7.21837 9.34279 7.19079 9.34878 7.16515 9.35992C7.1395 9.37107 7.11631 9.38715 7.09688 9.40726C7.07746 9.42737 7.06219 9.45111 7.05194 9.47712C7.04168 9.50313 7.03666 9.53091 7.03714 9.55886C7.03762 9.58682 7.04361 9.6144 7.05475 9.64004C7.0659 9.66568 7.08198 9.68888 7.10209 9.7083L7.90209 10.5083C7.92146 10.5278 7.9445 10.5433 7.96989 10.5539C7.99528 10.5645 8.02251 10.5699 8.05001 10.5699C8.07751 10.5699 8.10474 10.5645 8.13013 10.5539C8.15552 10.5433 8.17856 10.5278 8.19793 10.5083L9.89793 8.8083C9.91907 8.7888 9.93595 8.76512 9.94749 8.73876C9.95904 8.71241 9.965 8.68395 9.965 8.65518C9.965 8.62641 9.95904 8.59795 9.94749 8.57159C9.93595 8.54524 9.91907 8.52156 9.89793 8.50205Z" fill="white"/>
</svg>
