<svg width="16" height="16" viewBox="0 0 16 16" fill="none" xmlns="http://www.w3.org/2000/svg">
<path d="M9.33331 5.3335H9.99998C10.1768 5.3335 10.3464 5.26326 10.4714 5.13823C10.5964 5.01321 10.6666 4.84364 10.6666 4.66683C10.6666 4.49002 10.5964 4.32045 10.4714 4.19543C10.3464 4.0704 10.1768 4.00016 9.99998 4.00016H9.33331C9.1565 4.00016 8.98693 4.0704 8.86191 4.19543C8.73688 4.32045 8.66665 4.49002 8.66665 4.66683C8.66665 4.84364 8.73688 5.01321 8.86191 5.13823C8.98693 5.26326 9.1565 5.3335 9.33331 5.3335ZM9.33331 8.00016H9.99998C10.1768 8.00016 10.3464 7.92992 10.4714 7.8049C10.5964 7.67988 10.6666 7.51031 10.6666 7.3335C10.6666 7.15669 10.5964 6.98712 10.4714 6.86209C10.3464 6.73707 10.1768 6.66683 9.99998 6.66683H9.33331C9.1565 6.66683 8.98693 6.73707 8.86191 6.86209C8.73688 6.98712 8.66665 7.15669 8.66665 7.3335C8.66665 7.51031 8.73688 7.67988 8.86191 7.8049C8.98693 7.92992 9.1565 8.00016 9.33331 8.00016ZM5.99998 5.3335H6.66665C6.84346 5.3335 7.01303 5.26326 7.13805 5.13823C7.26308 5.01321 7.33331 4.84364 7.33331 4.66683C7.33331 4.49002 7.26308 4.32045 7.13805 4.19543C7.01303 4.0704 6.84346 4.00016 6.66665 4.00016H5.99998C5.82317 4.00016 5.6536 4.0704 5.52858 4.19543C5.40355 4.32045 5.33331 4.49002 5.33331 4.66683C5.33331 4.84364 5.40355 5.01321 5.52858 5.13823C5.6536 5.26326 5.82317 5.3335 5.99998 5.3335ZM5.99998 8.00016H6.66665C6.84346 8.00016 7.01303 7.92992 7.13805 7.8049C7.26308 7.67988 7.33331 7.51031 7.33331 7.3335C7.33331 7.15669 7.26308 6.98712 7.13805 6.86209C7.01303 6.73707 6.84346 6.66683 6.66665 6.66683H5.99998C5.82317 6.66683 5.6536 6.73707 5.52858 6.86209C5.40355 6.98712 5.33331 7.15669 5.33331 7.3335C5.33331 7.51031 5.40355 7.67988 5.52858 7.8049C5.6536 7.92992 5.82317 8.00016 5.99998 8.00016ZM14 13.3335H13.3333V2.00016C13.3333 1.82335 13.2631 1.65378 13.1381 1.52876C13.013 1.40373 12.8435 1.3335 12.6666 1.3335H3.33331C3.1565 1.3335 2.98693 1.40373 2.86191 1.52876C2.73688 1.65378 2.66665 1.82335 2.66665 2.00016V13.3335H1.99998C1.82317 13.3335 1.6536 13.4037 1.52858 13.5288C1.40355 13.6538 1.33331 13.8234 1.33331 14.0002C1.33331 14.177 1.40355 14.3465 1.52858 14.4716C1.6536 14.5966 1.82317 14.6668 1.99998 14.6668H14C14.1768 14.6668 14.3464 14.5966 14.4714 14.4716C14.5964 14.3465 14.6666 14.177 14.6666 14.0002C14.6666 13.8234 14.5964 13.6538 14.4714 13.5288C14.3464 13.4037 14.1768 13.3335 14 13.3335ZM8.66665 13.3335H7.33331V10.6668H8.66665V13.3335ZM12 13.3335H9.99998V10.0002C9.99998 9.82335 9.92974 9.65378 9.80472 9.52876C9.67969 9.40373 9.51012 9.3335 9.33331 9.3335H6.66665C6.48984 9.3335 6.32027 9.40373 6.19524 9.52876C6.07022 9.65378 5.99998 9.82335 5.99998 10.0002V13.3335H3.99998V2.66683H12V13.3335Z" fill="#75737F"/>
</svg>
