<svg width="16" height="16" viewBox="0 0 16 16" fill="none" xmlns="http://www.w3.org/2000/svg">
<path d="M1.66667 5.90675L7.66667 9.37342C7.76801 9.43193 7.88298 9.46273 8 9.46273C8.11702 9.46273 8.23199 9.43193 8.33333 9.37342L14.3333 5.90675C14.4341 5.84858 14.5179 5.76506 14.5764 5.66447C14.6348 5.56389 14.666 5.44976 14.6667 5.33342C14.6671 5.21594 14.6365 5.10043 14.578 4.99858C14.5195 4.89673 14.4351 4.81215 14.3333 4.75342L8.33333 1.29342C8.23199 1.23491 8.11702 1.2041 8 1.2041C7.88298 1.2041 7.76801 1.23491 7.66667 1.29342L1.66667 4.75342C1.56493 4.81215 1.48052 4.89673 1.42199 4.99858C1.36345 5.10043 1.33287 5.21594 1.33333 5.33342C1.33404 5.44976 1.36517 5.56389 1.42365 5.66447C1.48213 5.76506 1.56591 5.84858 1.66667 5.90675ZM8 2.66675L12.6667 5.33342L8 8.00008L3.33333 5.33342L8 2.66675ZM13.6667 7.44675L8 10.6668L2.33333 7.42008C2.25724 7.37601 2.17319 7.34741 2.086 7.33596C1.99881 7.3245 1.91022 7.33041 1.82533 7.35334C1.74044 7.37626 1.66092 7.41576 1.59135 7.46955C1.52179 7.52334 1.46355 7.59036 1.42 7.66675C1.33309 7.81983 1.31024 8.00107 1.35645 8.17093C1.40266 8.34079 1.51418 8.48547 1.66667 8.57342L7.66667 12.0401C7.76801 12.0986 7.88298 12.1294 8 12.1294C8.11702 12.1294 8.23199 12.0986 8.33333 12.0401L14.3333 8.57342C14.4858 8.48547 14.5973 8.34079 14.6435 8.17093C14.6898 8.00107 14.6669 7.81983 14.58 7.66675C14.5364 7.59036 14.4782 7.52334 14.4086 7.46955C14.3391 7.41576 14.2596 7.37626 14.1747 7.35334C14.0898 7.33041 14.0012 7.3245 13.914 7.33596C13.8268 7.34741 13.7428 7.37601 13.6667 7.42008V7.44675ZM13.6667 10.1134L8 13.3334L2.33333 10.0868C2.25724 10.0427 2.17319 10.0141 2.086 10.0026C1.99881 9.99117 1.91022 9.99708 1.82533 10.02C1.74044 10.0429 1.66092 10.0824 1.59135 10.1362C1.52179 10.19 1.46355 10.257 1.42 10.3334C1.33309 10.4865 1.31024 10.6677 1.35645 10.8376C1.40266 11.0075 1.51418 11.1521 1.66667 11.2401L7.66667 14.7068C7.76801 14.7653 7.88298 14.7961 8 14.7961C8.11702 14.7961 8.23199 14.7653 8.33333 14.7068L14.3333 11.2401C14.4858 11.1521 14.5973 11.0075 14.6435 10.8376C14.6898 10.6677 14.6669 10.4865 14.58 10.3334C14.5364 10.257 14.4782 10.19 14.4086 10.1362C14.3391 10.0824 14.2596 10.0429 14.1747 10.02C14.0898 9.99708 14.0012 9.99117 13.914 10.0026C13.8268 10.0141 13.7428 10.0427 13.6667 10.0868V10.1134Z" fill="#75737F"/>
</svg>
