<svg width="18" height="18" viewBox="0 0 18 18" fill="none" xmlns="http://www.w3.org/2000/svg">
<path d="M12 5.24998C12.1837 5.25001 12.361 5.31745 12.4983 5.43952C12.6355 5.56159 12.7232 5.7298 12.7447 5.91223L12.75 5.99998V13.2157L14.121 11.8447C14.2556 11.7088 14.4372 11.6295 14.6284 11.623C14.8196 11.6165 15.0061 11.6833 15.1497 11.8098C15.2932 11.9363 15.383 12.1129 15.4006 12.3035C15.4183 12.494 15.3624 12.684 15.2445 12.8347L15.1815 12.9052L12.5302 15.5572C12.4011 15.6864 12.2293 15.7639 12.047 15.7754C11.8647 15.7869 11.6845 15.7314 11.5402 15.6195L11.4697 15.5572L8.81773 12.9052C8.68322 12.7703 8.60512 12.5892 8.59931 12.3987C8.59349 12.2082 8.66039 12.0227 8.78642 11.8798C8.91244 11.7369 9.08814 11.6473 9.27783 11.6292C9.46753 11.6111 9.65698 11.6659 9.80773 11.7825L9.87898 11.8447L11.25 13.215V5.99998C11.25 5.80107 11.329 5.61031 11.4696 5.46965C11.6103 5.329 11.8011 5.24998 12 5.24998ZM6.53023 2.44273L9.18148 5.09473C9.25311 5.16392 9.31025 5.24668 9.34956 5.33818C9.38886 5.42968 9.40955 5.5281 9.41042 5.62768C9.41128 5.72727 9.39231 5.82603 9.3546 5.9182C9.31688 6.01037 9.26119 6.09411 9.19077 6.16453C9.12036 6.23495 9.03662 6.29064 8.94444 6.32835C8.85227 6.36606 8.75351 6.38504 8.65393 6.38417C8.55434 6.38331 8.45593 6.36262 8.36443 6.32331C8.27292 6.284 8.19016 6.22687 8.12098 6.15523L6.74998 4.78423V11.9992C6.74998 12.1981 6.67096 12.3889 6.53031 12.5296C6.38966 12.6702 6.19889 12.7492 5.99998 12.7492C5.80107 12.7492 5.6103 12.6702 5.46965 12.5296C5.329 12.3889 5.24998 12.1981 5.24998 11.9992V4.78498L3.87748 6.15523C3.73603 6.29185 3.54658 6.36745 3.34993 6.36574C3.15328 6.36403 2.96517 6.28515 2.82612 6.1461C2.68706 6.00704 2.60818 5.81893 2.60647 5.62229C2.60476 5.42564 2.68036 5.23619 2.81698 5.09473L5.46898 2.44273C5.60962 2.30213 5.80036 2.22314 5.99923 2.22314C6.1981 2.22314 6.38958 2.30213 6.53023 2.44273Z" fill="#75737F"/>
</svg>
